<svg width="240" height="115" viewBox="0 0 240 115" fill="none" xmlns="http://www.w3.org/2000/svg">
<rect y="13" width="240" height="100" fill="white"/>
<path d="M52.0568 86V77.2727H53.1136V81.6023H53.2159L57.1364 77.2727H58.517L54.8523 81.2102L58.517 86H57.2386L54.2045 81.9432L53.1136 83.1705V86H52.0568Z" fill="white"/>
<path d="M41.0469 92.1562C40.6094 94.6875 39.3281 95.9688 37.2031 96C36.4844 96 35.8281 95.7969 35.2344 95.3906C34.0156 94.5781 33.4062 93.2656 33.4062 91.4531L41.8906 26.9062C41.9531 26.4062 42.0938 25.9063 42.3125 25.4062C43 23.9687 44.1094 23.25 45.6406 23.25C46.2344 23.25 46.8125 23.4062 47.375 23.7188C48.625 24.4063 49.2969 25.4687 49.3906 26.9062L46.2969 52.0781C61.7031 34.8281 69.7969 25.875 70.5781 25.2188C71.6719 24.125 72.7344 23.5781 73.7656 23.5781C74.4531 23.5781 75.0938 23.7656 75.6875 24.1406C76.875 24.8594 77.4688 25.8906 77.4688 27.2344C77.4688 28.1719 77.125 29.1562 76.4375 30.1875C75.5938 31.2812 65.9375 41.9844 47.4688 62.2969C49.5 64.1094 51.7812 66.1719 54.3125 68.4844C67.4375 80.3281 74.9062 87.1562 76.7188 88.9688C77.875 90.1562 78.4688 91.25 78.5 92.25C78.5 92.9688 78.2812 93.6406 77.8438 94.2656C77.0938 95.4219 76.0938 96 74.8438 96C73.75 96 72.7344 95.6562 71.7969 94.9688C70.7344 94.2188 61.4844 85.7969 44.0469 69.7031C42.5781 81.3906 41.5781 88.875 41.0469 92.1562ZM89.0469 81.6562C89.0469 80.5938 89.1094 79.4688 89.2344 78.2812C89.8906 72.9375 91.5781 68.1875 94.2969 64.0312C97.6094 58.9375 101.594 56.3906 106.25 56.3906C107.5 56.3906 108.703 56.5469 109.859 56.8594C113.984 58.0469 116.047 60.9531 116.047 65.5781C116.047 65.9219 116.031 66.2812 116 66.6562C115.688 70.8438 113.812 74.3594 110.375 77.2031C107 80.0156 103.078 81.4219 98.6094 81.4219C97.7656 81.4219 96.9375 81.3438 96.125 81.1875C96.0625 81.6562 96.0312 82.3125 96.0312 83.1562C96.0312 84.9688 96.3438 86.375 96.9688 87.375C97.8125 88.6562 99.5469 89.4062 102.172 89.625C103.328 89.625 104.469 89.5 105.594 89.25C107.562 88.7812 109.891 87.6719 112.578 85.9219C114.328 84.7656 115.562 84.1875 116.281 84.1875C116.688 84.1875 117.109 84.3125 117.547 84.5625C118.547 85.1562 119.047 86.0156 119.047 87.1406C119.047 87.5156 118.969 87.9219 118.812 88.3594C117.969 90.3906 115.438 92.3125 111.219 94.125C107.312 95.8125 103.875 96.6562 100.906 96.6562C99.7812 96.6562 98.7344 96.5625 97.7656 96.375C91.9531 95.1875 89.0469 90.2812 89.0469 81.6562ZM104.094 63.75C101.25 65.6562 99.0156 69.2812 97.3906 74.625C98.1719 74.8125 98.9219 74.9062 99.6406 74.9062C102.234 74.9062 104.5 74.1094 106.438 72.5156C108.594 70.7656 109.672 68.6875 109.672 66.2812C109.672 63.875 108.906 62.6562 107.375 62.625C106.281 62.6562 105.188 63.0312 104.094 63.75ZM126.172 56.2969C128.391 56.3281 129.531 57.5625 129.594 60C129.594 60.5 129.422 61.75 129.078 63.75C127.859 70.9062 127.25 76.0781 127.25 79.2656C127.25 85.4844 128.953 88.625 132.359 88.6875C134.547 88.6875 136.703 87.6875 138.828 85.6875C141.609 83.125 143.922 79.5469 145.766 74.9531C144.422 74.7344 143.172 74.3438 142.016 73.7812C138.453 72.0312 136.672 69.0312 136.672 64.7812C136.672 62.7188 137.422 60.9219 138.922 59.3906C140.609 57.6719 142.594 56.8125 144.875 56.8125C147.094 56.8125 149.031 57.4219 150.688 58.6406C152.875 60.2969 153.969 62.5312 153.969 65.3438C153.969 65.5312 153.938 66.3281 153.875 67.7344C154.406 67.4844 155.078 67.1094 155.891 66.6094C157.078 65.8594 158.078 65.4844 158.891 65.4844C159.328 65.4844 159.75 65.6094 160.156 65.8594C161.219 66.4531 161.75 67.3438 161.75 68.5312C161.75 69.25 161.484 69.9531 160.953 70.6406C159.516 72.3906 156.734 73.7031 152.609 74.5781C151.328 79.0156 149.469 82.9844 147.031 86.4844C142.625 92.8281 137.422 96 131.422 96C128.422 95.9688 125.969 94.7969 124.062 92.4844C121.469 89.1719 120.172 84.125 120.172 77.3438C120.172 72.2812 120.734 67.2656 121.859 62.2969C121.859 62.2344 121.875 62.1562 121.906 62.0625C122.812 58.2812 124.234 56.3594 126.172 56.2969ZM145.531 63.3281C145.219 63.3281 144.891 63.3906 144.547 63.5156C143.547 63.8906 143.047 64.5781 143.047 65.5781C143.078 67.3594 144.562 68.3906 147.5 68.6719C147.656 67.9531 147.734 67.2031 147.734 66.4219C147.734 66.2344 147.719 66.0312 147.688 65.8125C147.5 64.1562 146.781 63.3281 145.531 63.3281ZM164.375 59.6719C164.375 60.5781 164.219 62.5312 163.906 65.5312C162.938 74.4062 162.453 79.9219 162.453 82.0781C162.453 83.5156 162.75 84.8594 163.344 86.1094C164.219 87.9844 165.391 88.9219 166.859 88.9219C167.172 88.9219 167.5 88.8906 167.844 88.8281C168.75 88.6094 170.062 87.875 171.781 86.625C173.469 85.375 174.828 84.75 175.859 84.75C176.297 84.75 176.734 84.9062 177.172 85.2188C178.047 85.8438 178.484 86.6719 178.484 87.7031C178.359 89.2969 177.125 90.9844 174.781 92.7656C171.906 94.7656 168.891 95.7656 165.734 95.7656C163.078 95.7656 160.875 94.8438 159.125 93C156.5 90.1875 155.188 85.7188 155.188 79.5938C155.188 77.5 155.609 73.4062 156.453 67.3125C156.828 64.4688 157.094 62.375 157.25 61.0312C157.281 60.75 157.312 60.4688 157.344 60.1875C157.844 57.0625 159.125 55.5 161.188 55.5C161.531 55.5 161.875 55.5312 162.219 55.5938C163.656 55.9375 164.375 57.2969 164.375 59.6719ZM159.031 47.3906C159.031 46.8281 159.156 46.2969 159.406 45.7969C160.031 44.5781 161.047 43.9688 162.453 43.9688C163.016 43.9688 163.547 44.0938 164.047 44.3438C165.266 44.9688 165.875 45.9844 165.875 47.3906C165.875 47.9531 165.75 48.4844 165.5 48.9844C164.875 50.2031 163.859 50.8125 162.453 50.8125C161.891 50.8125 161.359 50.6875 160.859 50.4375C159.641 49.8125 159.031 48.7969 159.031 47.3906ZM172.766 91.125C172.766 91.125 174.094 81.0938 176.75 61.0312C176.812 60.5 176.891 60 176.984 59.5312C177.547 56.8438 178.766 55.5 180.641 55.5C180.984 55.5 181.328 55.5312 181.672 55.5938C183.109 55.9375 183.828 57.2969 183.828 59.6719C183.828 60.0156 183.797 60.6094 183.734 61.4531C183.703 62.0156 183.688 62.4531 183.688 62.7656C183.75 62.6406 183.828 62.5156 183.922 62.3906C186.234 58.2969 189.531 56.25 193.812 56.25C195.344 56.25 196.75 56.7031 198.031 57.6094C199.938 59.0156 200.891 60.875 200.891 63.1875C200.891 63.5625 200.875 64.4531 200.844 65.8594C200.812 69.0469 200.797 71.5781 200.797 73.4531C200.797 79.8281 200.984 83.5781 201.359 84.7031C201.453 84.9531 201.547 85.2188 201.641 85.5C202.516 87.875 203.75 89.0625 205.344 89.0625C205.625 89.0625 205.938 89.0312 206.281 88.9688C207.219 88.7812 208.562 88.0469 210.312 86.7656C212.031 85.5469 213.406 84.9375 214.438 84.9375C214.844 84.9375 215.234 85.0469 215.609 85.2656C216.578 85.8281 217.062 86.75 217.062 88.0312C216.875 89.5625 215.562 91.25 213.125 93.0938C210.25 95.0312 207.359 96 204.453 96C202.109 96 200.125 95.3594 198.5 94.0781C195.156 91.3906 193.484 85.5 193.484 76.4062C193.484 75.75 193.5 74.6875 193.531 73.2188C193.594 71.6875 193.625 70.4062 193.625 69.375C193.625 66.0312 193.25 64.3125 192.5 64.2188C192.375 64.2188 192.219 64.25 192.031 64.3125C190.25 64.9688 187.969 68.5156 185.188 74.9531C182.75 80.6094 181.188 85.3125 180.5 89.0625L180.406 90.4219C180.312 91.5469 180 92.5781 179.469 93.5156C178.562 95.0156 177.438 95.7656 176.094 95.7656C175.719 95.7656 175.344 95.6875 174.969 95.5312C173.5 94.8438 172.766 93.375 172.766 91.125Z" fill="#2D2525"/>
<path d="M69.0605 109V101.119H71.0645C72.2793 101.119 73.1895 101.455 73.7949 102.127C74.4004 102.795 74.7031 103.76 74.7031 105.021C74.7031 106.283 74.3965 107.262 73.7832 107.957C73.1699 108.652 72.2656 109 71.0703 109H69.0605ZM69.998 108.232H70.959C71.9043 108.232 72.6035 107.951 73.0566 107.389C73.5137 106.826 73.7422 106.037 73.7422 105.021C73.7422 104.006 73.5195 103.23 73.0742 102.695C72.6328 102.156 71.9395 101.887 70.9941 101.887H69.998V108.232ZM78.6641 109.146C78.1484 109.146 77.6797 109.027 77.2578 108.789C76.8359 108.551 76.5 108.205 76.25 107.752C76.0039 107.295 75.8809 106.742 75.8809 106.094C75.8809 105.445 76 104.895 76.2383 104.441C76.4805 103.984 76.7988 103.635 77.1934 103.393C77.5918 103.15 78.0215 103.029 78.4824 103.029C79.248 103.029 79.8242 103.271 80.2109 103.756C80.6016 104.236 80.7969 104.904 80.7969 105.76C80.7969 105.857 80.7949 105.951 80.791 106.041C80.7871 106.131 80.7793 106.213 80.7676 106.287H76.7949C76.8262 106.943 77.0195 107.461 77.375 107.84C77.7344 108.215 78.2012 108.402 78.7754 108.402C79.0566 108.402 79.3164 108.365 79.5547 108.291C79.793 108.217 80.0195 108.109 80.2344 107.969L80.5625 108.578C80.3164 108.734 80.0371 108.869 79.7246 108.982C79.416 109.092 79.0625 109.146 78.6641 109.146ZM76.7891 105.672H79.9883C79.9883 105.039 79.8613 104.564 79.6074 104.248C79.3535 103.928 78.9863 103.768 78.5059 103.768C78.0684 103.768 77.6855 103.932 77.3574 104.26C77.0332 104.588 76.8438 105.059 76.7891 105.672ZM83.7617 109.146C83.3516 109.146 82.959 109.068 82.584 108.912C82.2129 108.756 81.8906 108.564 81.6172 108.338L82.0801 107.717C82.334 107.92 82.5938 108.09 82.8594 108.227C83.125 108.359 83.4375 108.426 83.7969 108.426C84.1953 108.426 84.4922 108.336 84.6875 108.156C84.8828 107.973 84.9805 107.75 84.9805 107.488C84.9805 107.281 84.9121 107.109 84.7754 106.973C84.6426 106.832 84.4727 106.715 84.2656 106.621C84.0586 106.523 83.8477 106.436 83.6328 106.357C83.3555 106.256 83.082 106.137 82.8125 106C82.5469 105.863 82.3242 105.689 82.1445 105.479C81.9688 105.264 81.8809 104.992 81.8809 104.664C81.8809 104.203 82.0547 103.816 82.4023 103.504C82.7539 103.191 83.2422 103.035 83.8672 103.035C84.2227 103.035 84.5547 103.096 84.8633 103.217C85.1719 103.338 85.4375 103.488 85.6602 103.668L85.2148 104.26C85.0156 104.107 84.8105 103.986 84.5996 103.896C84.3887 103.803 84.1465 103.756 83.873 103.756C83.4941 103.756 83.2148 103.838 83.0352 104.002C82.8594 104.162 82.7715 104.359 82.7715 104.594C82.7715 104.777 82.834 104.934 82.959 105.062C83.084 105.188 83.2461 105.297 83.4453 105.391C83.6445 105.484 83.8535 105.574 84.0723 105.66C84.3574 105.762 84.6367 105.881 84.9102 106.018C85.1875 106.15 85.416 106.328 85.5957 106.551C85.7793 106.77 85.8711 107.066 85.8711 107.441C85.8711 107.906 85.6895 108.307 85.3262 108.643C84.9629 108.979 84.4414 109.146 83.7617 109.146ZM88.7188 109.146C88.2109 109.146 87.791 109.002 87.459 108.713C87.1309 108.424 86.9668 108.016 86.9668 107.488C86.9668 106.852 87.2539 106.354 87.8281 105.994C88.4023 105.631 89.3164 105.408 90.5703 105.326C90.5742 105.033 90.541 104.773 90.4707 104.547C90.4004 104.316 90.2754 104.135 90.0957 104.002C89.9199 103.865 89.668 103.797 89.3398 103.797C88.9922 103.797 88.6641 103.854 88.3555 103.967C88.0508 104.076 87.7852 104.209 87.5586 104.365L87.1895 103.721C87.4512 103.553 87.7812 103.396 88.1797 103.252C88.582 103.107 89.0176 103.035 89.4863 103.035C90.1973 103.035 90.709 103.246 91.0215 103.668C91.334 104.09 91.4902 104.67 91.4902 105.408V109H90.7285L90.6465 108.297H90.623C90.3418 108.527 90.0527 108.727 89.7559 108.895C89.4629 109.062 89.1172 109.146 88.7188 109.146ZM88.9648 108.402C89.2539 108.402 89.5215 108.334 89.7676 108.197C90.0176 108.057 90.2852 107.857 90.5703 107.6V105.93C89.8906 105.973 89.3555 106.064 88.9648 106.205C88.5742 106.346 88.2949 106.521 88.127 106.732C87.959 106.939 87.875 107.172 87.875 107.43C87.875 107.773 87.9785 108.021 88.1855 108.174C88.3926 108.326 88.6523 108.402 88.9648 108.402ZM93.3887 109V103.182H94.1504L94.2266 104.236H94.2734C94.4688 103.869 94.709 103.578 94.9941 103.363C95.2793 103.145 95.5879 103.035 95.9199 103.035C96.0449 103.035 96.1543 103.045 96.248 103.064C96.3457 103.08 96.4414 103.111 96.5352 103.158L96.3594 103.961C96.2617 103.93 96.1719 103.906 96.0898 103.891C96.0117 103.875 95.9141 103.867 95.7969 103.867C95.5508 103.867 95.291 103.969 95.0176 104.172C94.748 104.375 94.5117 104.727 94.3086 105.227V109H93.3887ZM97.502 109V103.182H98.2637L98.3398 104.236H98.3867C98.582 103.869 98.8223 103.578 99.1074 103.363C99.3926 103.145 99.7012 103.035 100.033 103.035C100.158 103.035 100.268 103.045 100.361 103.064C100.459 103.08 100.555 103.111 100.648 103.158L100.473 103.961C100.375 103.93 100.285 103.906 100.203 103.891C100.125 103.875 100.027 103.867 99.9102 103.867C99.6641 103.867 99.4043 103.969 99.1309 104.172C98.8613 104.375 98.625 104.727 98.4219 105.227V109H97.502ZM103.854 109.146C103.373 109.146 102.93 109.027 102.523 108.789C102.117 108.551 101.791 108.205 101.545 107.752C101.303 107.299 101.182 106.746 101.182 106.094C101.182 105.434 101.303 104.877 101.545 104.424C101.791 103.967 102.117 103.621 102.523 103.387C102.93 103.152 103.373 103.035 103.854 103.035C104.338 103.035 104.783 103.152 105.189 103.387C105.6 103.621 105.928 103.967 106.174 104.424C106.42 104.877 106.543 105.434 106.543 106.094C106.543 106.746 106.42 107.299 106.174 107.752C105.928 108.205 105.6 108.551 105.189 108.789C104.783 109.027 104.338 109.146 103.854 109.146ZM103.854 108.379C104.381 108.379 104.803 108.17 105.119 107.752C105.436 107.334 105.594 106.781 105.594 106.094C105.594 105.398 105.436 104.844 105.119 104.43C104.803 104.012 104.381 103.803 103.854 103.803C103.334 103.803 102.916 104.012 102.6 104.43C102.287 104.844 102.131 105.398 102.131 106.094C102.131 106.781 102.287 107.334 102.6 107.752C102.916 108.17 103.334 108.379 103.854 108.379ZM109.104 109.146C108.752 109.146 108.498 109.039 108.342 108.824C108.186 108.605 108.107 108.293 108.107 107.887V100.439H109.027V107.957C109.027 108.105 109.053 108.213 109.104 108.279C109.158 108.346 109.223 108.379 109.297 108.379C109.328 108.379 109.357 108.379 109.385 108.379C109.416 108.375 109.459 108.367 109.514 108.355L109.643 109.053C109.576 109.08 109.5 109.102 109.414 109.117C109.332 109.137 109.229 109.146 109.104 109.146ZM112.139 109.146C111.787 109.146 111.533 109.039 111.377 108.824C111.221 108.605 111.143 108.293 111.143 107.887V100.439H112.062V107.957C112.062 108.105 112.088 108.213 112.139 108.279C112.193 108.346 112.258 108.379 112.332 108.379C112.363 108.379 112.393 108.379 112.42 108.379C112.451 108.375 112.494 108.367 112.549 108.355L112.678 109.053C112.611 109.08 112.535 109.102 112.449 109.117C112.367 109.137 112.264 109.146 112.139 109.146ZM115.637 109.146C115.129 109.146 114.709 109.002 114.377 108.713C114.049 108.424 113.885 108.016 113.885 107.488C113.885 106.852 114.172 106.354 114.746 105.994C115.32 105.631 116.234 105.408 117.488 105.326C117.492 105.033 117.459 104.773 117.389 104.547C117.318 104.316 117.193 104.135 117.014 104.002C116.838 103.865 116.586 103.797 116.258 103.797C115.91 103.797 115.582 103.854 115.273 103.967C114.969 104.076 114.703 104.209 114.477 104.365L114.107 103.721C114.369 103.553 114.699 103.396 115.098 103.252C115.5 103.107 115.936 103.035 116.404 103.035C117.115 103.035 117.627 103.246 117.939 103.668C118.252 104.09 118.408 104.67 118.408 105.408V109H117.646L117.564 108.297H117.541C117.26 108.527 116.971 108.727 116.674 108.895C116.381 109.062 116.035 109.146 115.637 109.146ZM115.883 108.402C116.172 108.402 116.439 108.334 116.686 108.197C116.936 108.057 117.203 107.857 117.488 107.6V105.93C116.809 105.973 116.273 106.064 115.883 106.205C115.492 106.346 115.213 106.521 115.045 106.732C114.877 106.939 114.793 107.172 114.793 107.43C114.793 107.773 114.896 108.021 115.104 108.174C115.311 108.326 115.57 108.402 115.883 108.402ZM122.281 109.146C121.559 109.146 120.977 108.887 120.535 108.367C120.098 107.848 119.879 107.09 119.879 106.094C119.879 105.445 119.994 104.895 120.225 104.441C120.459 103.984 120.768 103.637 121.15 103.398C121.533 103.156 121.953 103.035 122.41 103.035C122.754 103.035 123.049 103.096 123.295 103.217C123.545 103.334 123.801 103.498 124.062 103.709L124.021 102.707V100.439H124.941V109H124.18L124.104 108.303H124.068C123.838 108.529 123.57 108.727 123.266 108.895C122.961 109.062 122.633 109.146 122.281 109.146ZM122.48 108.367C122.758 108.367 123.021 108.299 123.271 108.162C123.521 108.025 123.771 107.818 124.021 107.541V104.441C123.764 104.211 123.516 104.049 123.277 103.955C123.043 103.857 122.805 103.809 122.562 103.809C122.23 103.809 121.932 103.902 121.666 104.09C121.404 104.273 121.197 104.537 121.045 104.881C120.896 105.221 120.822 105.621 120.822 106.082C120.822 106.805 120.963 107.367 121.244 107.77C121.529 108.168 121.941 108.367 122.48 108.367ZM129.189 109.146C128.709 109.146 128.266 109.027 127.859 108.789C127.453 108.551 127.127 108.205 126.881 107.752C126.639 107.299 126.518 106.746 126.518 106.094C126.518 105.434 126.639 104.877 126.881 104.424C127.127 103.967 127.453 103.621 127.859 103.387C128.266 103.152 128.709 103.035 129.189 103.035C129.674 103.035 130.119 103.152 130.525 103.387C130.936 103.621 131.264 103.967 131.51 104.424C131.756 104.877 131.879 105.434 131.879 106.094C131.879 106.746 131.756 107.299 131.51 107.752C131.264 108.205 130.936 108.551 130.525 108.789C130.119 109.027 129.674 109.146 129.189 109.146ZM129.189 108.379C129.717 108.379 130.139 108.17 130.455 107.752C130.771 107.334 130.93 106.781 130.93 106.094C130.93 105.398 130.771 104.844 130.455 104.43C130.139 104.012 129.717 103.803 129.189 103.803C128.67 103.803 128.252 104.012 127.936 104.43C127.623 104.844 127.467 105.398 127.467 106.094C127.467 106.781 127.623 107.334 127.936 107.752C128.252 108.17 128.67 108.379 129.189 108.379ZM133.443 109V103.182H134.205L134.281 104.236H134.328C134.523 103.869 134.764 103.578 135.049 103.363C135.334 103.145 135.643 103.035 135.975 103.035C136.1 103.035 136.209 103.045 136.303 103.064C136.4 103.08 136.496 103.111 136.59 103.158L136.414 103.961C136.316 103.93 136.227 103.906 136.145 103.891C136.066 103.875 135.969 103.867 135.852 103.867C135.605 103.867 135.346 103.969 135.072 104.172C134.803 104.375 134.566 104.727 134.363 105.227V109H133.443Z" fill="#2D2525"/>
<path d="M139.934 109L138.246 101.119H139.219L140.062 105.461C140.148 105.883 140.23 106.307 140.309 106.732C140.387 107.154 140.465 107.58 140.543 108.01H140.59C140.68 107.58 140.771 107.154 140.865 106.732C140.959 106.307 141.055 105.883 141.152 105.461L142.266 101.119H143.127L144.24 105.461C144.338 105.879 144.434 106.301 144.527 106.727C144.621 107.152 144.717 107.58 144.814 108.01H144.867C144.945 107.58 145.021 107.154 145.096 106.732C145.174 106.307 145.248 105.883 145.318 105.461L146.174 101.119H147.082L145.424 109H144.305L143.074 104.16C143.012 103.855 142.947 103.559 142.881 103.27C142.814 102.977 142.752 102.678 142.693 102.373H142.646C142.584 102.678 142.52 102.977 142.453 103.27C142.387 103.559 142.318 103.855 142.248 104.16L141.041 109H139.934ZM150.504 109.146C149.988 109.146 149.52 109.027 149.098 108.789C148.676 108.551 148.34 108.205 148.09 107.752C147.844 107.295 147.721 106.742 147.721 106.094C147.721 105.445 147.84 104.895 148.078 104.441C148.32 103.984 148.639 103.635 149.033 103.393C149.432 103.15 149.861 103.029 150.322 103.029C151.088 103.029 151.664 103.271 152.051 103.756C152.441 104.236 152.637 104.904 152.637 105.76C152.637 105.857 152.635 105.951 152.631 106.041C152.627 106.131 152.619 106.213 152.607 106.287H148.635C148.666 106.943 148.859 107.461 149.215 107.84C149.574 108.215 150.041 108.402 150.615 108.402C150.896 108.402 151.156 108.365 151.395 108.291C151.633 108.217 151.859 108.109 152.074 107.969L152.402 108.578C152.156 108.734 151.877 108.869 151.564 108.982C151.256 109.092 150.902 109.146 150.504 109.146ZM148.629 105.672H151.828C151.828 105.039 151.701 104.564 151.447 104.248C151.193 103.928 150.826 103.768 150.346 103.768C149.908 103.768 149.525 103.932 149.197 104.26C148.873 104.588 148.684 105.059 148.629 105.672ZM156.639 109.146C156.361 109.146 156.076 109.084 155.783 108.959C155.49 108.834 155.215 108.658 154.957 108.432H154.916L154.834 109H154.096V100.439H155.016V102.795L154.986 103.861C155.256 103.623 155.549 103.426 155.865 103.27C156.186 103.113 156.516 103.035 156.855 103.035C157.633 103.035 158.209 103.301 158.584 103.832C158.963 104.363 159.152 105.088 159.152 106.006C159.152 106.682 159.037 107.254 158.807 107.723C158.58 108.188 158.275 108.541 157.893 108.783C157.514 109.025 157.096 109.146 156.639 109.146ZM156.486 108.367C156.994 108.367 157.406 108.16 157.723 107.746C158.039 107.332 158.197 106.754 158.197 106.012C158.197 105.348 158.08 104.814 157.846 104.412C157.615 104.01 157.211 103.809 156.633 103.809C156.371 103.809 156.107 103.879 155.842 104.02C155.576 104.16 155.301 104.363 155.016 104.629V107.74C155.281 107.967 155.543 108.129 155.801 108.227C156.059 108.32 156.287 108.367 156.486 108.367Z" fill="#2D2525"/>
</svg>
